<?xml version="1.0" standalone="no"?>
<!DOCTYPE svg PUBLIC "-//W3C//DTD SVG 20010904//EN"
 "http://www.w3.org/TR/2001/REC-SVG-20010904/DTD/svg10.dtd">
<svg version="1.0" xmlns="http://www.w3.org/2000/svg"
 width="600.000000pt" height="600.000000pt" viewBox="0 0 600.000000 600.000000"
 preserveAspectRatio="xMidYMid meet">
<metadata>
Created by potrace 1.14, written by Peter Selinger 2001-2017
</metadata>
<g transform="translate(0.000000,600.000000) scale(0.100000,-0.100000)"
fill="#000000" stroke="none">
<path d="M2798 5996 c-1 -2 -37 -6 -78 -10 -41 -4 -88 -8 -105 -10 -124 -17
-125 -17 -195 -32 -14 -3 -36 -7 -50 -10 -142 -27 -390 -107 -560 -180 -128
-56 -382 -190 -388 -205 -2 -5 -8 -9 -14 -9 -16 0 -174 -112 -293 -207 -98
-79 -298 -270 -382 -365 -17 -20 -68 -85 -113 -145 -45 -59 -88 -115 -94 -124
-32 -39 -170 -276 -214 -365 -90 -183 -194 -462 -217 -583 -2 -12 -7 -31 -10
-41 -6 -20 -11 -41 -25 -115 -6 -27 -12 -61 -15 -75 -3 -14 -7 -43 -10 -65 -3
-22 -8 -56 -10 -75 -16 -114 -19 -187 -19 -380 0 -235 5 -304 34 -485 29 -179
98 -444 139 -540 5 -11 19 -47 32 -80 61 -164 196 -418 307 -580 130 -189 331
-418 498 -567 290 -258 665 -472 1044 -597 308 -101 562 -142 890 -144 204 -2
375 5 439 18 14 2 47 7 74 10 28 3 53 8 56 9 3 2 28 7 55 10 27 4 53 9 56 11
4 2 22 7 41 10 19 3 72 17 119 30 516 148 938 390 1304 749 286 281 525 628
662 959 14 34 31 76 39 92 13 29 77 220 81 240 1 6 9 35 18 66 9 31 18 65 21
75 38 179 51 251 61 339 2 22 8 72 13 110 8 71 7 504 -2 560 -3 17 -8 57 -12
90 -4 32 -9 68 -11 80 -2 11 -9 47 -14 80 -52 318 -194 692 -376 995 -259 432
-648 815 -1074 1059 -52 30 -268 138 -335 167 -139 61 -387 138 -542 170 -13
2 -33 6 -45 8 -13 3 -32 7 -43 9 -11 3 -63 10 -115 17 -52 6 -106 14 -120 17
-27 5 -496 13 -502 9z"/>
</g>
</svg>
